<svg xmlns="http://www.w3.org/2000/svg" viewBox="0 0 133.549 133.139">
  <defs>
    <style>
      @font-face{font-family:&quot;Virgil&quot;;src:url(&quot;https://excalidraw.com/FG_Virgil.woff2&quot;)}@font-face{font-family:&quot;Cascadia&quot;;src:url(&quot;https://excalidraw.com/Cascadia.woff2&quot;)}
    </style>
  </defs>
  <path d="M67.21 9.905c9.21-.64 21.475 2.806 29.62 7.562 8.144 4.756 14.629 12.501 19.246 20.974 4.617 8.473 8.569 20.162 8.457 29.863-.113 9.702-4.04 20.271-9.13 28.345-5.092 8.074-13.195 15.525-21.418 20.1-8.222 4.574-18.65 7.573-27.919 7.35-9.268-.225-19.6-3.615-27.693-8.693-8.093-5.078-16.119-13.364-20.867-21.774-4.748-8.411-7.58-19.375-7.622-28.69-.042-9.316 2.66-19.406 7.367-27.203 4.708-7.798 11.257-15.159 20.881-19.58 9.624-4.423 29.571-6.1 36.865-6.952 7.294-.853 7 1.046 6.9 1.834m-6.631-2.553c9.37.459 20.075 6.133 27.432 11.645 7.358 5.512 13.205 12.72 16.715 21.427 3.51 8.706 5.465 21.419 4.349 30.81-1.117 9.39-4.994 18.132-11.05 25.531-6.055 7.4-16.376 14.893-25.284 18.866-8.909 3.973-18.993 6.352-28.166 4.972-9.173-1.381-19.416-7.599-26.871-13.256-7.455-5.657-14.343-11.984-17.862-20.689-3.518-8.705-4.602-21.996-3.25-31.54 1.352-9.546 5.737-18.643 11.362-25.73C28.265 25.437 36.614 19.4 45.027 15.73c8.412-3.67 23.024-4.622 28.089-5.226 5.064-.603 2.071.465 2.3 1.605" stroke="#000" fill="none"/>
  <path d="M65.957 79.207c2.096-.676 6.323-.9 8.283.71 1.96 1.61 2.905 5.898 3.48 8.947.574 3.049 1.053 6.618-.032 9.346-1.085 2.728-4.452 5.651-6.48 7.022-2.027 1.37-3.905 2.067-5.684 1.202-1.78-.864-3.712-4.013-4.992-6.392-1.28-2.378-2.78-4.96-2.689-7.878.092-2.918 1.637-7.33 3.239-9.632 1.602-2.3 5.05-3.673 6.372-4.173 1.323-.5 1.381.865 1.562 1.173m-4.83.286c2-1.178 5.283-1.254 7.16-.27 1.876.984 2.99 3.797 4.1 6.172 1.109 2.375 2.518 5.074 2.555 8.077.037 3.003-.668 7.591-2.332 9.943-1.664 2.351-5.503 4.082-7.654 4.166-2.15.085-3.56-1.493-5.25-3.66-1.69-2.166-4.108-6.108-4.889-9.34-.78-3.23-.74-7.208.202-10.047.944-2.839 4.59-6.225 5.458-6.985.868-.76-.597 1.904-.247 2.425M27.495 43.237c1.436-1.268 4.832-7.561 8.105-9.662 3.273-2.101 8.424-2.374 11.535-2.945 3.11-.57 5.931-.618 7.13-.481m-27.7 12.507c1.744-1.54 7.845-8.709 11.141-11.015 3.297-2.307 5.887-2.671 8.637-2.825 2.75-.154 6.215 1.373 7.867 1.902M77.173 31.651c1.618-.543 8.545-2.404 11.876-2.733 3.33-.329 4.988-1.009 8.11.761 3.122 1.77 8.79 8.097 10.623 9.858m-29.014-8.743c1.368-.938 6.42-3.415 9.307-3.47 2.887-.056 4.734.894 8.015 3.138 3.281 2.245 9.916 9.156 11.671 10.328" stroke="#000" stroke-width="2" fill="none"/>
  <path d="M61.097 87.414c2.753-.2 12.833-1.755 15.413-1.846m-16.898 1.328c2.646-.115 12.991-.565 15.647-.324" stroke="#000" stroke-width="2" fill="none"/>
  <path d="M45.694 43.88c1.374-.464 3.16.085 4.227 1.061 1.067.976 1.602 2.946 2.172 4.795.57 1.85 1.492 4.534 1.248 6.301-.245 1.768-1.668 3.225-2.717 4.305-1.048 1.08-2.172 2.53-3.573 2.176-1.402-.354-3.875-2.622-4.837-4.297-.96-1.675-.96-3.826-.93-5.752.028-1.925.342-4.187 1.102-5.799s2.522-3.237 3.456-3.875c.933-.638 2.1-.336 2.145.048m-.325-.076c.895.346 1.49 3.603 2.122 5.172.632 1.57 1.472 2.289 1.67 4.245.198 1.957.241 5.962-.48 7.493-.722 1.53-2.6 1.269-3.848 1.692-1.248.423-2.72 1.686-3.643.846-.922-.841-1.487-3.885-1.892-5.89-.406-2.006-.805-3.976-.543-6.145.262-2.169 1.066-5.509 2.116-6.867 1.05-1.36 3.533-1.395 4.184-1.285.651.109-.33 1.665-.277 1.941M91.34 44.088c.92.77 1.145 2.664 1.372 4.527.227 1.864.577 4.826-.009 6.652-.586 1.826-2.208 3.199-3.505 4.307-1.296 1.108-2.919 2.71-4.276 2.34-1.357-.369-3.232-2.878-3.867-4.555-.635-1.676-.322-3.607.058-5.502.38-1.895 1.28-4.188 2.225-5.868.945-1.68 1.939-3.86 3.446-4.214 1.508-.353 4.87 1.425 5.6 2.095.73.67-1.047 1.594-1.22 1.926m-2.804-2.02c.797.506 2.56.778 3.044 2.518.484 1.74.337 5.95-.14 7.924-.479 1.974-1.552 2.585-2.729 3.92-1.176 1.334-3.244 3.885-4.33 4.087-1.085.202-1.571-1.492-2.184-2.876-.613-1.385-1.583-3.154-1.494-5.43.088-2.277 1.034-6.168 2.025-8.228.99-2.06 2.694-3.748 3.92-4.131 1.226-.384 2.721 1.621 3.437 1.83.716.207.901-.61.857-.583" stroke="#000" fill="none"/>
  <path d="M46.942 51.667c.354-.03.834.217 1.12.528.286.311.532.862.596 1.339.065.477-.02 1.103-.207 1.522-.186.42-.562.828-.913.993a1.494 1.494 0 01-1.193 0c-.35-.165-.726-.574-.913-.993-.187-.42-.272-1.045-.207-1.522.065-.477.31-1.028.596-1.339.286-.31.934-.448 1.12-.528.187-.08 0 .007 0 .045m0-.045c.355-.03.835.217 1.121.528.286.311.532.862.596 1.339.065.477-.02 1.103-.207 1.522-.186.42-.562.828-.913.993a1.494 1.494 0 01-1.193 0c-.35-.165-.726-.574-.913-.993-.187-.42-.272-1.045-.207-1.522.065-.477.31-1.028.596-1.339.286-.31.934-.448 1.12-.528.187-.08 0 .007 0 .045" stroke-width="0"/>
  <path d="M46.942 51.667c.354-.03.834.217 1.12.528.286.311.532.862.596 1.339.065.477-.02 1.103-.207 1.522-.186.42-.562.828-.913.993a1.494 1.494 0 01-1.193 0c-.35-.165-.726-.574-.913-.993-.187-.42-.272-1.045-.207-1.522.065-.477.31-1.028.596-1.339.286-.31.934-.448 1.12-.528.187-.08 0 .007 0 .045m0-.045c.355-.03.835.217 1.121.528.286.311.532.862.596 1.339.065.477-.02 1.103-.207 1.522-.186.42-.562.828-.913.993a1.494 1.494 0 01-1.193 0c-.35-.165-.726-.574-.913-.993-.187-.42-.272-1.045-.207-1.522.065-.477.31-1.028.596-1.339.286-.31.934-.448 1.12-.528.187-.08 0 .007 0 .045" stroke="#000" fill="none"/>
  <g>
    <path d="M86.63 50.39c.356-.029.837.218 1.124.53.287.312.533.864.598 1.342.065.478-.02 1.106-.208 1.526-.187.42-.564.83-.916.996a1.498 1.498 0 01-1.195 0c-.352-.166-.73-.575-.916-.996-.188-.42-.273-1.048-.208-1.526.065-.478.31-1.03.598-1.342.287-.312.936-.45 1.123-.53.188-.08 0 .008 0 .045m0-.045c.356-.029.837.218 1.124.53.287.312.533.864.598 1.342.065.478-.02 1.106-.208 1.526-.187.42-.564.83-.916.996a1.498 1.498 0 01-1.195 0c-.352-.166-.73-.575-.916-.996-.188-.42-.273-1.048-.208-1.526.065-.478.31-1.03.598-1.342.287-.312.936-.45 1.123-.53.188-.08 0 .008 0 .045" stroke-width="0"/>
    <path d="M86.63 50.39c.356-.029.837.218 1.124.53.287.312.533.864.598 1.342.065.478-.02 1.106-.208 1.526-.187.42-.564.83-.916.996a1.498 1.498 0 01-1.195 0c-.352-.166-.73-.575-.916-.996-.188-.42-.273-1.048-.208-1.526.065-.478.31-1.03.598-1.342.287-.312.936-.45 1.123-.53.188-.08 0 .008 0 .045m0-.045c.356-.029.837.218 1.124.53.287.312.533.864.598 1.342.065.478-.02 1.106-.208 1.526-.187.42-.564.83-.916.996a1.498 1.498 0 01-1.195 0c-.352-.166-.73-.575-.916-.996-.188-.42-.273-1.048-.208-1.526.065-.478.31-1.03.598-1.342.287-.312.936-.45 1.123-.53.188-.08 0 .008 0 .045" stroke="#000" fill="none"/>
  </g>
</svg>
